#N canvas 70 378 450 300 10;
#X obj 115 77 adc~ 1 2;
#X obj 139 232 sqlight red-center bright;
#X obj 132 206 line;
#X msg 120 175 1 0;
#X msg 153 177 0 400;
#X obj 118 123 aubiotempo~;
#X obj 129 149 bng 15 250 50 0 empty empty empty 17 7 0 10 -262144
-1 -1;
#X obj 209 125 aubioonset~;
#X obj 239 206 line;
#X msg 227 175 1 0;
#X obj 236 149 bng 15 250 50 0 empty empty empty 17 7 0 10 -262144
-1 -1;
#X obj 253 259 sqlight green-bulbs bright;
#X msg 260 177 0 200;
#X connect 0 0 5 0;
#X connect 0 0 7 0;
#X connect 0 1 5 0;
#X connect 0 1 7 0;
#X connect 2 0 1 0;
#X connect 3 0 2 0;
#X connect 4 0 2 0;
#X connect 5 0 6 0;
#X connect 6 0 3 0;
#X connect 6 0 4 0;
#X connect 7 0 10 0;
#X connect 8 0 11 0;
#X connect 9 0 8 0;
#X connect 10 0 9 0;
#X connect 10 0 12 0;
#X connect 12 0 8 0;
