#N canvas 121 131 450 300 10;
#X obj 111 49 vsl 15 128 0 360 0 0 empty empty empty 0 -9 0 10 -262144
-1 -1 10900 1;
#X obj 156 50 vsl 15 128 0 1 0 0 empty empty empty 0 -9 0 10 -262144
-1 -1 7400 1;
#X obj 198 49 vsl 15 128 0 1 0 0 empty empty empty 0 -9 0 10 -262144
-1 -1 12700 1;
#X floatatom 119 202 5 0 0 0 - - -;
#X floatatom 173 203 5 0 0 0 - - -;
#X floatatom 218 205 5 0 0 0 - - -;
#X obj 106 233 bng 15 250 50 0 empty empty empty 17 7 0 10 -262144
-1 -1;
#X obj 150 244 sqlight elmo0 hsi;
#X connect 0 0 3 0;
#X connect 1 0 4 0;
#X connect 2 0 5 0;
#X connect 3 0 7 0;
#X connect 4 0 7 1;
#X connect 4 0 6 0;
#X connect 5 0 7 2;
#X connect 5 0 6 0;
#X connect 6 0 7 0;
