#N canvas 534 209 458 437 10;
#X obj 109 61 adc~ 1 2;
#X obj 109 97 env~ 1024;
#X floatatom 110 130 5 0 0 0 - - -;
#X obj 110 162 / 100;
#X floatatom 110 220 5 0 0 0 - - -;
#X floatatom 179 219 5 0 0 0 - - -;
#X obj 176 191 mavg 100;
#X obj 110 192 mavg 10;
#X obj 55 355 sqlight tower-lights bright;
#X floatatom 206 286 5 0 0 0 - - -;
#X obj 182 319 sqlight hanging-terahertz switch;
#X obj 159 241 -;
#X obj 162 264 > 0.05;
#X connect 0 0 1 0;
#X connect 1 0 2 0;
#X connect 2 0 3 0;
#X connect 3 0 6 0;
#X connect 3 0 7 0;
#X connect 4 0 8 0;
#X connect 4 0 11 0;
#X connect 5 0 11 1;
#X connect 6 0 5 0;
#X connect 7 0 4 0;
#X connect 9 0 10 0;
#X connect 11 0 12 0;
#X connect 12 0 9 0;
