#N canvas 204 187 464 476 10;
#X obj 109 61 adc~ 1 2;
#X floatatom 110 130 5 0 0 0 - - -;
#X obj 110 162 / 100;
#X floatatom 110 220 5 0 0 0 - - -;
#X floatatom 179 219 5 0 0 0 - - -;
#X obj 176 191 mavg 100;
#X obj 55 355 sqlight tower-lights bright;
#X obj 182 319 sqlight hanging-terahertz switch;
#X obj 159 241 -;
#X obj 162 264 >;
#X obj 225 246 * 0.05;
#X obj 48 413 sqlight cyan-back bright;
#X obj 61 442 sqlight green-lantern bright;
#X obj 248 345 sqlight traffic-cone bright;
#X obj 109 97 env~ 2048;
#X floatatom 284 139 5 0 1 0 - - -;
#X obj 287 188 sqlight blue-front switch;
#X obj 64 386 sqlight red-center bright;
#X obj 110 192 mavg 3;
#X obj 112 302 * 15;
#X connect 0 0 14 0;
#X connect 1 0 2 0;
#X connect 2 0 5 0;
#X connect 2 0 18 0;
#X connect 3 0 8 0;
#X connect 4 0 8 1;
#X connect 4 0 10 0;
#X connect 5 0 4 0;
#X connect 8 0 9 0;
#X connect 8 0 19 0;
#X connect 9 0 7 0;
#X connect 9 0 13 0;
#X connect 10 0 9 1;
#X connect 14 0 1 0;
#X connect 15 0 16 0;
#X connect 18 0 3 0;
#X connect 19 0 12 0;
